<svg xmlns="http://www.w3.org/2000/svg" width="380" height="183" viewBox="0 0 380 183" version="1.1"><path d="M 176.571 1.571 C 175.670 2.473, 174.975 4.924, 174.942 7.321 C 174.911 9.620, 174.573 13.205, 174.192 15.290 C 173.523 18.952, 173.215 19.194, 165.039 22.487 C 155.811 26.205, 156.680 26.326, 149.838 20.359 C 142.434 13.901, 142.969 13.785, 132.436 24.115 C 127.246 29.204, 123 33.925, 123 34.604 C 123 35.284, 125.502 38.771, 128.560 42.353 L 134.120 48.867 132.432 52.132 C 131.503 53.928, 129.974 57.659, 129.034 60.424 C 127.101 66.111, 125.914 66.741, 116.821 66.900 C 108.382 67.048, 108 67.722, 108 82.449 C 108 91.076, 108.374 95.064, 109.250 95.789 C 109.938 96.358, 114.250 97.149, 118.834 97.548 C 125.194 98.101, 127.289 98.655, 127.679 99.886 C 129.021 104.122, 132.283 112, 132.695 112 C 132.950 112, 136.196 109.654, 139.908 106.787 L 146.658 101.575 144.829 95.698 C 141.017 83.451, 143.115 67.729, 149.991 57.014 C 166.754 30.892, 203.498 27.489, 224.449 50.118 C 235.878 62.463, 240.015 80.134, 235.142 95.793 L 233.283 101.764 240.123 106.882 C 243.884 109.697, 247.143 112, 247.365 112 C 247.730 112, 251.057 103.868, 252.331 99.861 C 252.733 98.598, 254.764 98.056, 261.176 97.500 C 265.754 97.103, 270.063 96.323, 270.750 95.767 C 271.627 95.057, 272 91.088, 272 82.449 C 272 67.722, 271.618 67.048, 263.179 66.900 C 254.086 66.741, 252.899 66.111, 250.966 60.424 C 250.026 57.659, 248.506 53.946, 247.589 52.172 L 245.921 48.946 251.460 42.416 C 254.507 38.825, 257 35.320, 257 34.627 C 257 33.935, 252.754 29.204, 247.564 24.115 C 237.031 13.785, 237.566 13.901, 230.162 20.359 C 223.320 26.326, 224.189 26.205, 214.961 22.487 C 206.785 19.194, 206.477 18.952, 205.808 15.290 C 205.427 13.205, 205.089 9.620, 205.058 7.321 C 204.965 0.622, 203.687 -0, 190 -0 C 180.554 -0, 177.823 0.320, 176.571 1.571 M 187.264 46.718 C 188.784 46.947, 191.034 46.941, 192.264 46.704 C 193.494 46.467, 192.250 46.279, 189.500 46.286 C 186.750 46.294, 185.744 46.488, 187.264 46.718 M 183.086 50 C 183.055 50.825, 183.467 52.175, 184 53 C 185.181 54.828, 185.181 53.249, 184 50.500 C 183.433 49.181, 183.122 49.011, 183.086 50 M 191.487 62.021 C 191.095 62.655, 189.924 62.952, 188.886 62.680 C 187.847 62.409, 187.249 62.595, 187.558 63.093 C 188.330 64.344, 191.737 64.235, 192.541 62.933 C 192.904 62.347, 192.975 61.642, 192.700 61.367 C 192.425 61.092, 191.879 61.386, 191.487 62.021 M 205.405 67.155 C 204.949 67.891, 205.132 68.037, 205.909 67.557 C 206.594 67.133, 208.081 67.611, 209.313 68.652 L 211.500 70.500 209.595 68.250 C 207.459 65.727, 206.450 65.463, 205.405 67.155 M 212.250 76.689 C 213.213 76.941, 214.787 76.941, 215.750 76.689 C 216.713 76.438, 215.925 76.232, 214 76.232 C 212.075 76.232, 211.287 76.438, 212.250 76.689 M 213.558 83.907 C 213.249 84.405, 213.898 84.578, 214.999 84.290 C 217.334 83.679, 217.629 83, 215.559 83 C 214.766 83, 213.866 83.408, 213.558 83.907 M 212.405 98.250 L 210.500 100.500 212.750 98.595 C 213.988 97.547, 215 96.535, 215 96.345 C 215 95.545, 214.195 96.136, 212.405 98.250 M 354.360 133 C 354.360 138.225, 354.529 140.363, 354.735 137.750 C 354.941 135.137, 354.941 130.863, 354.735 128.250 C 354.529 125.638, 354.360 127.775, 354.360 133 M 364.415 142 C 364.415 152.175, 364.564 156.338, 364.745 151.250 C 364.927 146.162, 364.927 137.837, 364.745 132.750 C 364.564 127.662, 364.415 131.825, 364.415 142 M 326.411 142 C 326.411 151.625, 326.561 155.563, 326.745 150.750 C 326.928 145.937, 326.928 138.062, 326.745 133.250 C 326.561 128.438, 326.411 132.375, 326.411 142 M 310.158 133 C 310.158 134.375, 310.385 134.938, 310.662 134.250 C 310.940 133.563, 310.940 132.438, 310.662 131.750 C 310.385 131.063, 310.158 131.625, 310.158 133 M 293.762 132.707 C 295.006 132.946, 296.806 132.937, 297.762 132.687 C 298.718 132.437, 297.700 132.241, 295.500 132.252 C 293.300 132.263, 292.518 132.468, 293.762 132.707 M 38.252 141.500 C 38.263 143.700, 38.468 144.482, 38.707 143.238 C 38.946 141.994, 38.937 140.194, 38.687 139.238 C 38.437 138.282, 38.241 139.300, 38.252 141.500 M 103.252 141.500 C 103.263 143.700, 103.468 144.482, 103.707 143.238 C 103.946 141.994, 103.937 140.194, 103.687 139.238 C 103.437 138.282, 103.241 139.300, 103.252 141.500 M 342.336 152 C 342.336 156.125, 342.513 157.813, 342.728 155.750 C 342.944 153.688, 342.944 150.313, 342.728 148.250 C 342.513 146.188, 342.336 147.875, 342.336 152 M 265.272 156 C 265.272 158.475, 265.467 159.488, 265.706 158.250 C 265.944 157.012, 265.944 154.988, 265.706 153.750 C 265.467 152.512, 265.272 153.525, 265.272 156" stroke="none" fill="#7cc644" fill-rule="evenodd"/><path d="M 184 48.500 C 184 49.325, 184.450 50, 185 50 C 185.550 50, 186 50.852, 186 51.893 C 186 52.934, 186.725 54.064, 187.611 54.404 C 189.305 55.054, 189.259 54.783, 186.827 49.758 C 185.374 46.755, 184 46.143, 184 48.500 M 191 49.738 C 188.716 52.003, 188.689 52.121, 190.694 51.103 C 192.871 49.998, 194.523 48.146, 193.850 47.564 C 193.658 47.397, 192.375 48.375, 191 49.738 M 194.711 51.620 C 193.985 55.934, 191.055 59.630, 190.252 57.244 C 190.019 56.553, 189.384 56.262, 188.841 56.599 C 188.297 56.935, 186.808 56.229, 185.531 55.030 C 184.042 53.630, 182.973 53.235, 182.546 53.925 C 182.181 54.516, 182.281 55, 182.768 55 C 183.255 55, 183.446 56.417, 183.192 58.149 L 182.729 61.297 181.452 58.911 C 180.750 57.599, 180.399 56.164, 180.672 55.722 C 180.944 55.281, 180.084 55.192, 178.760 55.524 C 177.195 55.917, 175.897 55.581, 175.053 54.564 C 172.998 52.088, 170.311 52.725, 167.551 56.344 C 164.494 60.352, 164.421 61.166, 166.918 63.426 C 168.637 64.981, 168.698 65.490, 167.509 68.331 C 166.483 70.782, 165.425 71.613, 162.841 72 C 159.669 72.475, 159.485 72.732, 159.203 77.068 C 158.937 81.150, 159.181 81.761, 161.500 82.818 C 162.927 83.468, 164.704 84, 165.449 84 C 166.195 84, 167.303 85.429, 167.911 87.176 C 168.879 89.952, 168.740 90.648, 166.805 92.707 L 164.592 95.063 168.605 99.076 L 172.618 103.088 175.257 101.012 C 177.144 99.528, 178.647 99.124, 180.529 99.597 C 183.232 100.275, 183.397 100.515, 184.448 105.301 C 185.038 107.985, 185.283 108.090, 190.282 107.801 C 195.355 107.508, 195.514 107.407, 196 104.159 C 196.387 101.575, 197.218 100.517, 199.669 99.491 C 202.510 98.302, 203.019 98.363, 204.574 100.082 C 206.969 102.728, 208.114 102.510, 211.804 98.702 C 215.519 94.869, 215.687 93.932, 213.082 91.574 C 211.363 90.019, 211.302 89.510, 212.491 86.669 C 213.517 84.218, 214.575 83.387, 217.159 83 C 220.106 82.559, 220.538 82.100, 220.824 79.112 C 221.349 73.614, 220.295 71, 217.552 71 C 216.227 71, 214.489 70.346, 213.690 69.548 C 212.892 68.749, 212.024 68.310, 211.762 68.572 C 211.499 68.834, 210.658 68.278, 209.893 67.337 C 208.666 65.830, 208.709 65.704, 210.250 66.281 C 211.522 66.758, 212 66.432, 212 65.091 C 212 64.076, 212.675 62.685, 213.500 62 C 214.325 61.315, 215 60.421, 215 60.012 C 215 58.742, 210.803 53.864, 210.215 54.451 C 209.909 54.757, 210.702 56.118, 211.976 57.475 C 213.899 59.521, 214.077 60.202, 213.024 61.471 C 211.337 63.504, 210.004 63.407, 209.985 61.250 C 209.975 60.120, 209.709 59.909, 209.234 60.655 C 208.720 61.463, 207.613 61.103, 205.548 59.457 C 202.639 57.137, 202.624 57.073, 204.475 55.028 C 205.745 53.625, 206.579 53.319, 207.051 54.083 C 207.523 54.846, 207.959 54.876, 208.391 54.176 C 209.606 52.210, 206.870 51.807, 204.832 53.652 C 200.728 57.367, 196.816 55.578, 195.753 49.500 C 195.548 48.325, 195.118 49.200, 194.711 51.620 M 184 59.031 C 184 60.823, 184.622 62.302, 185.522 62.647 C 186.639 63.075, 186.177 63.667, 183.792 64.866 C 176.642 68.459, 173.847 77.957, 177.956 84.696 C 180.774 89.317, 184.479 91.385, 189.944 91.385 C 198.002 91.385, 203.983 85.398, 204.015 77.300 C 204.025 74.790, 204.323 73.961, 204.890 74.857 C 205.515 75.843, 205.944 75.899, 206.461 75.063 C 206.852 74.430, 206.611 73.236, 205.924 72.409 C 204.924 71.203, 204.513 71.162, 203.854 72.203 C 203.290 73.091, 203.026 72.741, 203.015 71.095 C 203 68.753, 203.053 68.738, 205 70.500 C 206.446 71.809, 207 71.937, 207 70.964 C 207 70.113, 207.527 70.331, 208.433 71.559 C 209.573 73.104, 210.121 73.248, 211.119 72.263 C 212.123 71.274, 211.935 70.559, 210.178 68.689 C 208.970 67.403, 208.295 66.038, 208.678 65.655 C 209.062 65.272, 207.397 62.943, 204.979 60.479 C 200.218 55.628, 197.115 54.255, 201.072 58.750 L 203.493 61.500 200.442 58.750 C 198.764 57.237, 196.614 56, 195.664 56 C 193.734 56, 192.213 58.843, 193.604 59.851 C 194.921 60.805, 195.259 64, 194.044 64 C 193.470 64, 193 63.325, 193 62.500 C 193 61.675, 192.373 61, 191.607 61 C 190.841 61, 189.913 60.215, 189.545 59.257 C 188.949 57.703, 188.658 57.784, 186.871 60.007 C 185.036 62.288, 184.960 62.307, 185.979 60.229 C 187.112 57.919, 186.641 56, 184.941 56 C 184.423 56, 184 57.364, 184 59.031 M 201.500 62 C 199.790 62.735, 199.754 62.870, 201.250 62.930 C 203.283 63.011, 203.498 64.102, 201.814 65.786 C 200.899 66.701, 200.211 66.596, 198.808 65.326 C 197.807 64.420, 196.825 63.864, 196.626 64.089 C 196.427 64.315, 197.650 65.625, 199.344 67 C 201.038 68.375, 202.109 68.988, 201.723 68.363 C 201.338 67.738, 201.703 66.662, 202.535 65.971 C 204.184 64.602, 204.163 64.592, 205.900 67.500 C 207.017 69.368, 207.052 69.344, 206.441 67.125 C 205.937 65.297, 206.099 64.931, 207.143 65.536 C 207.889 65.969, 207.409 65.125, 206.076 63.661 C 204.742 62.198, 203.617 61.032, 203.576 61.070 C 203.534 61.109, 202.600 61.527, 201.500 62 M 209.752 73.907 C 208.240 74.783, 207.003 75.838, 207.002 76.250 C 207.001 76.662, 209.727 77, 213.059 77 C 219.434 77, 220.031 76.059, 215.187 73.650 C 212.886 72.505, 212.105 72.542, 209.752 73.907 M 216.842 73.602 C 219.198 75.252, 220.707 74.953, 219.541 73.067 C 219.179 72.480, 217.908 72, 216.718 72 L 214.555 72 216.842 73.602 M 210.415 142 C 210.415 152.175, 210.564 156.338, 210.745 151.250 C 210.927 146.162, 210.927 137.837, 210.745 132.750 C 210.564 127.662, 210.415 131.825, 210.415 142 M 249.232 135 C 249.232 136.925, 249.438 137.713, 249.689 136.750 C 249.941 135.787, 249.941 134.213, 249.689 133.250 C 249.438 132.287, 249.232 133.075, 249.232 135 M 262.150 141.250 L 262 145 255.500 145 L 249 145 249.160 148.750 C 249.318 152.442, 249.326 152.450, 249.723 149.250 L 250.127 146 256.095 146 C 262.605 146, 263.463 145.267, 262.724 140.334 C 262.367 137.951, 262.276 138.096, 262.150 141.250 M 118.158 142 C 118.158 143.375, 118.385 143.938, 118.662 143.250 C 118.940 142.563, 118.940 141.438, 118.662 140.750 C 118.385 140.063, 118.158 140.625, 118.158 142 M 27.728 145.722 C 29.503 145.943, 32.653 145.946, 34.728 145.730 C 36.802 145.513, 35.350 145.333, 31.500 145.328 C 27.650 145.324, 25.952 145.501, 27.728 145.722 M 92.728 145.722 C 94.503 145.943, 97.653 145.946, 99.728 145.730 C 101.802 145.513, 100.350 145.333, 96.500 145.328 C 92.650 145.324, 90.952 145.501, 92.728 145.722 M 152.320 153 C 152.320 156.575, 152.502 158.037, 152.723 156.250 C 152.945 154.463, 152.945 151.537, 152.723 149.750 C 152.502 147.963, 152.320 149.425, 152.320 153" stroke="none" fill="#717273" fill-rule="evenodd"/><path d="M 16 142.069 L 16 160 28.500 160 L 41 160 41 156 L 41 152 33 152 L 25 152 25 148.500 L 25 145 31.500 145 L 38 145 38 141.500 L 38 138 31.500 138 L 25 138 25 135 L 25 132 32.500 132 L 40 132 40 128.069 L 40 124.138 28 124.138 L 16 124.138 16 142.069 M 46 141.866 L 46 160 50.450 160 L 54.900 160 55.200 154.260 C 55.628 146.070, 57.829 145.970, 62.748 153.916 C 66.483 159.950, 66.522 159.978, 71.250 159.989 C 73.862 159.995, 76 159.721, 76 159.381 C 76 159.040, 74.414 156.151, 72.476 152.961 L 68.952 147.159 71.476 143.440 C 74.348 139.208, 74.610 136.396, 72.584 131.546 C 70.316 126.119, 67.219 124.754, 55.939 124.211 L 46 123.733 46 141.866 M 81 142.069 L 81 160 93.500 160 L 106 160 106 156 L 106 152 98 152 L 90 152 90 148.500 L 90 145 96.500 145 L 103 145 103 141.500 L 103 138 96.500 138 L 90 138 90 135 L 90 132 97.500 132 L 105 132 105 128.069 L 105 124.138 93 124.138 L 81 124.138 81 142.069 M 119.421 125.896 C 105.424 132.254, 106.170 153.080, 120.593 158.589 C 124.581 160.112, 125.861 160.187, 129.860 159.130 C 132.412 158.456, 135.775 156.642, 137.333 155.100 L 140.166 152.296 136.447 150.101 L 132.728 147.907 130.468 150.030 C 125.308 154.878, 118.415 149.781, 118.600 141.254 C 118.680 137.565, 119.236 136.194, 121.406 134.327 C 124.743 131.456, 126.958 131.393, 130.362 134.070 L 132.994 136.140 135.997 134.002 C 137.649 132.826, 139 131.523, 139 131.106 C 139 129.555, 134.206 125.920, 130.917 124.976 C 126.150 123.609, 124.095 123.773, 119.421 125.896 M 141 124.796 C 141 125.083, 143.700 130.459, 147 136.742 C 152.370 146.967, 153 148.786, 153 154.083 L 153 160 157.500 160 L 162 160 162 153.693 C 162 147.926, 162.521 146.383, 168.096 135.640 L 174.193 123.892 169.144 124.123 L 164.096 124.353 160.870 132.166 C 159.096 136.462, 157.387 139.731, 157.072 139.429 C 156.758 139.127, 155.135 135.645, 153.466 131.690 L 150.432 124.500 145.716 124.387 C 143.122 124.324, 141 124.509, 141 124.796 M 186.500 125.496 C 172.577 130.399, 172.107 152.179, 185.795 158.233 C 192.456 161.180, 201.567 159.125, 204.802 153.946 C 205.772 152.393, 205.436 151.815, 202.520 150.012 L 199.101 147.899 197.050 149.950 C 194.301 152.699, 190.446 152.537, 187.455 149.545 C 185.491 147.582, 185 146.072, 185 142 C 185 137.928, 185.491 136.418, 187.455 134.455 C 190.448 131.461, 193.887 131.314, 196.829 134.055 L 199.035 136.111 202.018 133.987 C 203.658 132.819, 205 131.523, 205 131.106 C 205 129.555, 200.206 125.920, 196.917 124.976 C 192.555 123.725, 191.360 123.785, 186.500 125.496 M 211 141.943 L 211 160 223.500 160 L 236 160 236 156 L 236 152 228.028 152 L 220.056 152 219.778 138.250 L 219.500 124.500 215.250 124.193 L 211 123.885 211 141.943 M 240.697 124.637 C 240.314 125.020, 240 133.133, 240 142.667 L 240 160 252.500 160 L 265 160 265 156 L 265 152 257 152 L 249 152 249 148.500 L 249 145 255.500 145 L 262 145 262 141.500 L 262 138 255.500 138 L 249 138 249 135 L 249 132 257.060 132 L 265.121 132 264.810 128.250 L 264.500 124.500 252.947 124.220 C 246.592 124.066, 241.080 124.253, 240.697 124.637 M 282 142.040 L 282 160 290.250 159.956 C 306.053 159.873, 311.400 157.456, 311.400 150.396 C 311.400 147.559, 310.693 146.115, 308.224 143.909 C 305.838 141.777, 305.379 140.877, 306.379 140.286 C 310.422 137.896, 311.035 131.316, 307.588 127.306 C 305.227 124.559, 304.932 124.496, 293.588 124.290 L 282 124.081 282 142.040 M 317 142.187 L 317 160 321.500 160 L 326 160 326 141.954 L 326 123.908 321.500 124.141 L 317 124.374 317 142.187 M 333 142.167 L 333 160 337.462 160 L 341.925 160 342.212 150.929 L 342.500 141.859 349.838 150.929 C 356.489 159.151, 357.495 160, 360.588 160 L 364 160 364 142.143 L 364 124.286 359.500 124.286 L 355 124.286 355 133.143 C 355 138.014, 354.663 141.984, 354.250 141.965 C 353.837 141.946, 350.463 137.971, 346.751 133.132 C 340.535 125.027, 339.727 124.333, 336.501 124.333 L 333 124.333 333 142.167 M 55 136.500 L 55 141 59.021 141 C 62.283 141, 63.247 140.552, 64.124 138.626 C 65.901 134.726, 63.779 132, 58.965 132 L 55 132 55 136.500 M 291 135 C 291 138.086, 291.036 138.107, 295.750 137.805 C 300.069 137.528, 300.500 137.273, 300.500 135 C 300.500 132.727, 300.069 132.472, 295.750 132.195 C 291.036 131.893, 291 131.914, 291 135 M 291 148.500 L 291 152.105 296.250 151.802 C 301.349 151.509, 301.500 151.414, 301.500 148.500 C 301.500 145.586, 301.349 145.491, 296.250 145.198 L 291 144.895 291 148.500" stroke="none" fill="#545454" fill-rule="evenodd"/></svg>